# xmcd
#
# Track frame offsets:
#	150
#	14841
#	31264
#	42701
#	59133
#	73687
#	87949
#	102974
#	119005
#	133624
#	149588
#	167196
#	184118
#	202469
#	218582
#	234906
#
# Disc length: 3327 seconds
#
# Revision: 1
# Processed by: cddbd v1.5.2PL0 Copyright (c) Steve Scherf et al.
# Submitted via: dBpowerAMP V4.0
#
DISCID=020cfd10
DTITLE=Various Artist - ERG Nu Country Traxx Vol. 247 Can
DYEAR=2015
DGENRE=Country
TTITLE0=Little Big Town - Girl Crush
TTITLE1=Blake Shelton ft. Ashley Monroe - Lonely Tonight
TTITLE2=Rodney Atkins - Eat Sleep Love You Repeat
TTITLE3=Sam Hunt - Take Your Time
TTITLE4=Kristy Lee Cook - Lookin' For A Cowgirl
TTITLE5=Brett Kissel - Something You Just Don't Forget
TTITLE6=Rod Black - Long Gone
TTITLE7=Blackjack Billy, The Road Hammers, Doc Walker - Run
TTITLE8=Steven Lee Olsen - Raised By A Good Time
TTITLE9=High Valley ft. Ricky Skaggs - Make You Mine
TTITLE10=Logan Mize - Can't Get Away From A Good Time
TTITLE11=Josh Dorr - Save Your Breath
TTITLE12=Jordan Mcintosh ft. George Canyon - Story Of My Life
TTITLE13=Boom Chucka Boys, The - Turn This Car Around
TTITLE14=Tristan Horncastle - You Want
TTITLE15=James Carothers - I Must be Alive
EXTD=
EXTT0=
EXTT1=
EXTT2=
EXTT3=
EXTT4=
EXTT5=
EXTT6=
EXTT7=
EXTT8=
EXTT9=
EXTT10=
EXTT11=
EXTT12=
EXTT13=
EXTT14=
EXTT15=
PLAYORDER=
